HIERARCHY
ROOT Hips
{
	OFFSET -0.568511 99.152313 -4.068294
	CHANNELS 6 Xposition Yposition Zposition Xrotation Yrotation Zrotation
	JOINT Chest
	{
		OFFSET -3.746004 13.087189 0.920417
		CHANNELS 3 Xrotation Yrotation Zrotation
		JOINT Chest2
		{
			OFFSET -5.489351 20.380188 3.685291
			CHANNELS 3 Xrotation Yrotation Zrotation
			JOINT Chest3
			{
				OFFSET 1.135595 14.841171 -1.127006
				CHANNELS 3 Xrotation Yrotation Zrotation
				JOINT Neck
				{
					OFFSET 1.508287 17.177505 1.128813
					CHANNELS 3 Xrotation Yrotation Zrotation
					JOINT Head
					{
						OFFSET 4.073840 9.329880 2.486934
						CHANNELS 3 Xrotation Yrotation Zrotation
						End Site
						{
							OFFSET 4.075913 9.347580 2.416065
						}
					}
				}
				JOINT LeftCollar
				{
					OFFSET 4.943817 12.624969 4.239483
					CHANNELS 3 Xrotation Yrotation Zrotation
					JOINT LeftUpArm
					{
						OFFSET 15.820113 4.656723 -6.044688
						CHANNELS 3 Xrotation Yrotation Zrotation
						JOINT LeftLowArm
						{
							OFFSET 12.969933 30.056763 8.252257
							CHANNELS 3 Xrotation Yrotation Zrotation
							JOINT LeftHand
							{
								OFFSET -5.984699 29.394562 1.043764
								CHANNELS 3 Xrotation Yrotation Zrotation
								End Site
								{
									OFFSET -1.307981 6.424362 0.228117
								}
							}
						}
					}
				}
				JOINT RightCollar
				{
					OFFSET -3.370589 13.423233 3.203858
					CHANNELS 3 Xrotation Yrotation Zrotation
					JOINT RightUpArm
					{
						OFFSET -8.066526 12.819092 -8.893707
						CHANNELS 3 Xrotation Yrotation Zrotation
						JOINT RightLowArm
						{
							OFFSET 3.654350 32.293671 9.137733
							CHANNELS 3 Xrotation Yrotation Zrotation
							JOINT RightHand
							{
								OFFSET 20.740631 21.209137 4.577445
								CHANNELS 3 Xrotation Yrotation Zrotation
								End Site
								{
									OFFSET 4.533051 4.635498 1.000441
								}
							}
						}
					}
				}
			}
		}
	}
	JOINT LeftUpLeg
	{
		OFFSET 9.139713 2.380318 3.349458
		CHANNELS 3 Xrotation Yrotation Zrotation
		JOINT LeftLowLeg
		{
			OFFSET 0.516441 -43.559372 18.609264
			CHANNELS 3 Xrotation Yrotation Zrotation
			JOINT LeftFoot
			{
				OFFSET -4.809868 -42.895737 -11.721325
				CHANNELS 3 Xrotation Yrotation Zrotation
				JOINT LeftToe
				{
					OFFSET -15.579019 -17.323727 4.091707
					CHANNELS 3 Xrotation Yrotation Zrotation
					End Site
					{
						OFFSET -15.471378 -7.177232 16.391544
					}
				}
			}
		}
	}
	JOINT RightUpLeg
	{
		OFFSET -9.139662 -2.380508 -3.349473
		CHANNELS 3 Xrotation Yrotation Zrotation
		JOINT RightLowLeg
		{
			OFFSET -22.875162 -34.984478 22.289602
			CHANNELS 3 Xrotation Yrotation Zrotation
			JOINT RightFoot
			{
				OFFSET 40.907753 4.022587 -17.633923
				CHANNELS 3 Xrotation Yrotation Zrotation
				JOINT RightToe
				{
					OFFSET 9.753836 -20.126350 7.703901
					CHANNELS 3 Xrotation Yrotation Zrotation
					End Site
					{
						OFFSET -6.122523 -21.589272 7.481592
					}
				}
			}
		}
	}
}
MOTION
Frames: 11
Frame Time: 0.033333
-3.473375 105.661682 -1.111722 3.128311 18.795526 -15.187954 -3.351646 -2.744568 4.701709 4.689850 -8.865704 16.939383 1.250402 1.672054 -1.623239 -10.121608 -16.324313 17.128948 -0.000001 -0.000000 -0.000002 14.297126 -6.106622 -47.192376 20.310493 -16.946154 -94.318711 39.963812 4.872925 -31.704382 0.000001 0.000007 -0.000002 1.008916 -5.550176 77.319510 13.612228 -16.653582 95.180530 30.180448 -24.793928 39.778219 0.000005 0.000003 -0.000001 20.872763 9.726134 15.164910 -24.911621 4.160907 11.173980 -28.178234 16.556039 8.432015 0.000002 0.000001 0.000002 21.306309 14.524691 38.438276 -36.162990 -9.721973 -124.316546 -63.436529 11.127964 32.712037 0.000002 0.000000 0.000002 
-3.476025 105.655403 -1.107157 3.426611 18.975609 -15.207553 -3.858396 -2.859211 4.589157 4.758592 -8.823337 16.905611 1.361001 1.339911 -1.596806 -10.143385 -16.188926 17.048567 0.000000 -0.000001 -0.000000 14.204510 -6.222668 -47.393713 20.139274 -16.804518 -94.362485 39.636363 4.669545 -31.590479 0.000001 -0.000001 -0.000001 1.043155 -4.845737 77.650003 13.377463 -16.772047 94.976977 30.056090 -24.506220 39.434678 0.000003 0.000000 0.000006 20.744396 9.700079 15.226992 -25.095257 4.178774 11.043397 -28.329448 16.403119 8.469967 0.000001 -0.000002 0.000002 21.568598 14.594692 38.490729 -36.919539 -9.427646 -124.361598 -63.090908 11.299258 32.461061 0.000000 0.000001 0.000005 
-3.485183 105.649666 -1.099726 3.403050 18.947986 -15.243760 -4.004976 -2.879379 4.492887 5.089098 -8.771356 17.015678 1.077253 1.254860 -1.590478 -10.029913 -16.147467 17.059460 -0.000001 -0.000001 -0.000000 14.133472 -5.574675 -47.670834 20.189126 -16.717366 -94.315835 39.693979 4.678294 -31.728466 0.000000 -0.000005 0.000001 0.949977 -5.064312 77.785760 13.279869 -16.887450 94.810874 30.113614 -24.448170 39.698726 0.000001 0.000003 0.000009 20.571128 9.636155 15.290268 -24.944348 4.167739 11.008060 -27.959168 16.642043 8.395312 -0.000000 -0.000003 -0.000002 21.705544 14.700782 38.626359 -37.082637 -9.326096 -124.409218 -62.966995 11.001855 32.593864 0.000003 0.000001 0.000004 
-3.492257 105.642967 -1.091532 3.509365 18.877999 -15.159484 -4.170229 -2.913636 4.407177 5.469692 -8.668246 17.101055 0.949635 1.346287 -1.640369 -10.429430 -16.064817 17.063786 -0.000001 0.000000 -0.000002 14.180017 -5.882327 -47.625741 20.211991 -16.950971 -94.217644 39.702083 4.760742 -31.315492 -0.000000 -0.000001 -0.000001 0.996312 -4.937997 77.748091 13.655546 -16.264198 94.710798 29.748776 -24.367513 39.514611 0.000003 0.000001 0.000003 20.297181 9.427071 15.094397 -24.611439 4.093636 11.184738 -27.752447 16.593320 8.374083 -0.000002 0.000002 0.000001 21.592764 14.637813 38.505721 -37.176412 -9.310379 -124.364440 -62.801335 11.159651 32.427938 0.000001 -0.000001 0.000001 
-3.504442 105.631378 -1.083416 3.544441 18.689686 -15.123031 -4.028585 -2.873442 4.360424 4.962331 -8.681741 16.865431 1.330444 1.530215 -1.456930 -10.156846 -16.138663 17.176206 -0.000001 -0.000000 -0.000002 14.177108 -6.052785 -47.468777 20.188948 -16.578428 -94.481501 40.036882 4.581031 -31.076292 0.000000 0.000003 -0.000001 0.980612 -4.984463 77.719561 13.561043 -16.396839 94.822041 30.191243 -24.338189 39.332706 -0.000001 0.000001 0.000005 20.464177 9.486685 15.163305 -24.686935 4.176017 11.132439 -27.604404 16.512281 8.348483 0.000002 -0.000001 -0.000000 21.892269 14.761193 38.601330 -37.434757 -9.198893 -124.586339 -63.094337 11.124146 32.632199 0.000003 -0.000001 0.000003 
-3.518293 105.620674 -1.073705 3.860071 18.842866 -15.211605 -4.477501 -2.998891 4.357211 4.957714 -8.702680 16.897417 1.489033 1.424966 -1.544888 -10.020510 -16.229557 17.222360 -0.000000 0.000000 -0.000003 14.191973 -6.126161 -47.444079 20.195777 -16.490322 -94.395461 39.940559 4.577871 -31.300459 0.000000 -0.000001 -0.000001 1.060657 -4.555885 77.708606 13.628720 -16.217268 94.737292 30.034869 -24.337364 39.278973 0.000001 0.000002 -0.000001 20.218106 9.454426 15.273039 -24.732668 4.167560 11.014376 -27.808046 16.522149 8.401519 0.000001 -0.000001 -0.000002 22.113216 14.867727 38.722719 -38.287216 -8.869729 -124.635803 -62.851046 11.370074 32.393487 0.000003 -0.000003 -0.000001 
-3.534540 105.605011 -1.065759 4.117202 19.016876 -15.224135 -4.900691 -3.103498 4.256463 5.488518 -8.679794 17.104597 1.211652 1.081299 -1.681510 -9.836842 -16.191083 17.179205 0.000000 -0.000001 -0.000000 14.202658 -5.310171 -47.668426 20.144306 -16.645395 -94.056349 39.678597 4.464332 -31.844797 0.000001 0.000000 -0.000001 1.101281 -4.575198 77.509110 13.471275 -16.420236 94.821802 30.685769 -24.287348 39.426191 0.000001 -0.000001 0.000005 20.170737 9.539661 15.338071 -25.049808 4.097591 10.798170 -27.972193 16.472231 8.381051 0.000005 0.000002 0.000001 22.324072 14.897025 38.813199 -38.547723 -8.677138 -124.620599 -62.951190 10.877932 32.631123 0.000000 -0.000002 -0.000001 
-3.558058 105.590965 -1.057894 4.226764 18.830309 -15.204353 -5.043126 -3.121109 4.104549 6.151629 -8.529031 17.231437 0.524308 1.302918 -1.657470 -10.341464 -16.204084 17.084572 -0.000000 -0.000001 -0.000000 14.292837 -5.666771 -47.551968 20.218234 -16.426591 -93.882753 39.615186 4.584248 -31.836639 0.000002 0.000000 0.000001 1.101030 -4.659909 77.665275 13.485485 -16.417430 94.548492 31.244229 -24.335761 39.327102 0.000000 -0.000002 0.000007 20.385951 9.648559 15.403431 -25.391595 4.092354 10.625871 -27.734468 16.322783 8.280197 -0.000001 -0.000001 0.000003 22.240279 14.910322 38.884660 -38.447732 -8.689225 -124.686538 -63.041662 10.791967 32.642079 -0.000001 -0.000002 0.000003 
-3.582352 105.569382 -1.051778 4.029112 19.413636 -15.310286 -4.680449 -3.071116 4.365873 5.606977 -8.650914 17.105114 0.883511 0.904627 -1.670007 -10.122038 -16.216232 17.003568 -0.000001 0.000001 -0.000003 14.227602 -5.867214 -47.604909 20.316420 -15.303293 -93.780553 40.531528 4.424403 -31.233195 0.000001 -0.000001 -0.000001 1.049700 -4.555270 77.876922 13.166840 -16.893648 94.158051 32.707874 -24.590822 39.012323 0.000001 0.000000 0.000004 20.073374 9.616031 15.523545 -24.791300 4.080240 10.937792 -28.075083 17.018414 8.508340 0.000002 0.000002 0.000003 22.266941 14.998896 39.112265 -38.385004 -8.831502 -124.687904 -62.746632 10.477563 32.583865 -0.000000 -0.000002 -0.000002 
-3.611473 105.545830 -1.052818 3.550960 19.466934 -15.295804 -4.382598 -3.017014 4.429526 5.485419 -8.628014 17.058094 1.125539 1.163070 -1.635401 -10.330355 -16.388438 17.160507 -0.000000 0.000000 -0.000002 14.462953 -6.820443 -47.335523 20.733907 -14.612293 -92.984645 41.712027 4.593081 -29.711514 0.000001 -0.000001 -0.000001 0.935631 -5.662083 78.166884 13.507798 -16.952828 93.273207 33.625274 -24.947968 38.804501 -0.000000 0.000003 0.000001 20.916368 9.997296 15.790813 -25.337792 4.179028 10.634308 -28.200087 16.931621 8.547650 0.000005 -0.000002 -0.000000 23.065117 15.316452 39.302387 -38.805146 -8.740456 -124.710361 -62.975942 10.498741 32.662634 0.000000 -0.000000 0.000003 
-3.636765 105.525131 -1.064647 3.118970 19.153375 -15.206873 -3.731043 -2.848064 4.514021 6.226287 -8.405243 17.108266 0.536371 1.415769 -1.558130 -10.464636 -16.485275 17.080191 -0.000003 -0.000000 -0.000002 14.636510 -7.783696 -47.463579 20.924486 -14.136085 -91.702857 43.151755 4.621573 -27.697549 0.000001 -0.000001 -0.000002 1.031950 -5.581150 78.507424 13.443872 -17.291836 92.300185 35.644951 -25.407851 38.123022 -0.000000 0.000002 0.000003 20.970224 10.018199 15.699431 -24.659520 4.118409 10.860079 -27.695399 17.249311 8.432239 -0.000002 -0.000001 -0.000000 22.773466 15.183154 39.183204 -37.855265 -9.203831 -124.595464 -63.102444 10.053215 32.808974 0.000002 -0.000003 -0.000000 
